<svg id="Layer_1" data-name="Layer 1" xmlns="http://www.w3.org/2000/svg" viewBox="0 0 463.92 76.98"><defs><style>.cls-1{fill:#3eb9e7;}</style></defs><title>LOGO</title><path class="cls-1" d="M68.17,152.82a14,14,0,0,1-2,7.6,15.91,15.91,0,0,1-5.49,5.29,26.12,26.12,0,0,1-7.26,2.79,40.17,40.17,0,0,1-9.05.95c-1.8,0-3.66-.07-5.58-.17s-3-.18-3.35-.21L35.06,163c.39.05,1.49.17,3.27.32s3.92.22,6.36.22a35.61,35.61,0,0,0,5.76-.58,20.35,20.35,0,0,0,5.43-1.52,10.58,10.58,0,0,0,3.81-2.95A6.89,6.89,0,0,0,61,154.13a8.29,8.29,0,0,0-1.32-4.78,13.29,13.29,0,0,0-4.39-3.75,56.62,56.62,0,0,0-5.14-2.67,53.23,53.23,0,0,1-5.68-3,17.3,17.3,0,0,1-6.12-5.71,14.11,14.11,0,0,1-.17-13.59,16.83,16.83,0,0,1,4.32-4.86,18.81,18.81,0,0,1,6.59-3,34.25,34.25,0,0,1,8.66-1c1.76,0,3.51,0,5.29.14s2.8.17,3,.19l.6,6.11c-.26,0-1.27-.14-3.07-.3s-4-.26-6.65-.26a23.54,23.54,0,0,0-4.86.53,15,15,0,0,0-4.39,1.63,8.52,8.52,0,0,0-2.87,2.68,7,7,0,0,0-1.17,4,7.09,7.09,0,0,0,1.24,4,13.36,13.36,0,0,0,4.65,3.93,47.56,47.56,0,0,0,4.56,2.43c1.89.91,3.75,1.89,5.58,3a18.92,18.92,0,0,1,6.32,5.7A13,13,0,0,1,68.17,152.82Z" transform="translate(-35.06 -108.35)"/><path class="cls-1" d="M141.61,168.69H135c0-.31,0-2.26.1-5.89s.06-7,.06-10.23c0-1.26,0-3.32,0-6.21s0-5-.06-6.45c-.08-3.37-.75-5.69-2-7s-3.19-1.93-5.8-1.93a16.44,16.44,0,0,0-5.49,1.15,42.3,42.3,0,0,0-7.18,3.56c0,.14,0,.43,0,.84s0,1,0,1.64c0,2.27,0,4.58,0,6.91s0,4.57,0,6.7q0,7,.11,11.73c.06,3.17.11,4.89.11,5.17h-6.65c0-.31,0-2,.08-5.1s.09-6.72.09-10.94q0-2.1,0-6.36c0-2.86,0-4.95-.06-6.29a23.35,23.35,0,0,0-.34-3.54,7.18,7.18,0,0,0-1.09-2.86,5.69,5.69,0,0,0-2.28-2,9.8,9.8,0,0,0-4-.64A14.18,14.18,0,0,0,95,132.36a56.68,56.68,0,0,0-7.24,4c0,.48,0,2.27,0,5.36s0,5.62,0,7.58c0,3.34,0,7.35.11,12s.11,7.14.11,7.42H81.26c0-.22,0-1.85.08-4.91s.09-8.08.09-15.12c0-2.3,0-5.41,0-9.29s-.06-8.33-.14-13.26h6.56l0,4.84,0,0a43.48,43.48,0,0,1,7.09-4,18.36,18.36,0,0,1,7.56-2,12.86,12.86,0,0,1,6.88,1.71,10,10,0,0,1,3.93,4.39h.09a53.37,53.37,0,0,1,8.9-4.55,19.89,19.89,0,0,1,6.92-1.55c3.87,0,6.9,1.12,9.06,3.38s3.27,5.31,3.27,9.15c0,3,0,5.48-.06,7.5s-.07,4.2-.07,6.48q0,7.07.11,11.95C141.56,166.73,141.61,168.47,141.61,168.69Z" transform="translate(-35.06 -108.35)"/><path class="cls-1" d="M186,144.7c0,7,0,12.63,0,17s-.05,6.74-.05,7.08l-3.91.32c-2.32.17-5.33.27-9,.27a38.22,38.22,0,0,1-6.94-.64,24.34,24.34,0,0,1-6-1.81,14.39,14.39,0,0,1-5.45-4.25,11,11,0,0,1,.38-13.4,17.59,17.59,0,0,1,6.84-4.73,38.53,38.53,0,0,1,7.3-2,89.77,89.77,0,0,1,10.41-1.37,11.25,11.25,0,0,0-1.63-5.39,8.58,8.58,0,0,0-4.08-3.19,16.87,16.87,0,0,0-4.13-1.08,39.2,39.2,0,0,0-5.3-.31c-1.27,0-2.34,0-3.23.07s-2.08.14-3.59.21l.68-5.59,2.51-.14c1.24-.07,2.94-.11,5.1-.11a34.61,34.61,0,0,1,8.86,1,15.23,15.23,0,0,1,6.46,3.34,14,14,0,0,1,3.62,5.42A27.59,27.59,0,0,1,186,144.7Zm-6.43,10.14v-3.61c0-1.47,0-3.14-.05-5-1.22,0-3.38.3-6.46.73a35.21,35.21,0,0,0-7.79,1.87,12,12,0,0,0-4.19,2.66,5.81,5.81,0,0,0-1.83,4.37,6.69,6.69,0,0,0,1.55,4.61,9.73,9.73,0,0,0,4.25,2.67,21.8,21.8,0,0,0,4.56,1,42.6,42.6,0,0,0,5.29.32c.56,0,1.24,0,2.06,0s1.67-.07,2.56-.08c0-.2,0-1.13,0-2.78S179.56,157.65,179.56,154.84Z" transform="translate(-35.06 -108.35)"/><path class="cls-1" d="M225.64,131.08a67.76,67.76,0,0,0-7.1,2.3c-3.19,1.19-6.84,2.76-11,4.71,0,.32,0,1.73,0,4.23s0,4.85,0,7c0,3.31,0,7.22.11,11.78s.1,7.07.1,7.57H201q0-.72.09-4.71t.08-13.67c0-2.62,0-6.26,0-10.94s-.07-9.11-.13-13.26h6.52v6.39l0,.05a95.35,95.35,0,0,1,9.39-4.68,52.48,52.48,0,0,1,7.4-2.68Z" transform="translate(-35.06 -108.35)"/><path class="cls-1" d="M257.33,163.48l-.77,5.34-1.45.09-2,0c-5.74,0-10.09-1.21-13-3.6s-4.42-6.07-4.42-11q0-4.67.07-10c0-3.57.07-8,.07-13.26h-7.08v-4.92h7.45v-10h6.09v10h15.08V131H242.25c0,.59,0,2.34-.05,5.26s-.07,5.08-.07,6.49V153.2c0,3.65,1,6.29,3,7.9s5,2.42,9.09,2.42l1.81,0Z" transform="translate(-35.06 -108.35)"/><path class="cls-1" d="M281,108.35H325V123H310.22v44.81H295.76V123H281Z" transform="translate(-35.06 -108.35)"/><path class="cls-1" d="M336.55,138.7,324.13,137a21.1,21.1,0,0,1,2-6.53,12.74,12.74,0,0,1,3.81-4.1,13.53,13.53,0,0,1,4.92-2,31.28,31.28,0,0,1,6.77-.7,43.46,43.46,0,0,1,9.38.83,11.23,11.23,0,0,1,5.91,3.48,13,13,0,0,1,2.62,5.16,23.32,23.32,0,0,1,1,6.41v19a29.61,29.61,0,0,0,.29,4.76,25.31,25.31,0,0,0,1.31,4.41H350a20.44,20.44,0,0,1-.95-2.54,23.14,23.14,0,0,1-.47-2.74,15,15,0,0,1-13.06,6.25c-4.05,0-7.12-1.2-9.22-3.57a12.88,12.88,0,0,1-3.15-8.8,13.4,13.4,0,0,1,2.28-8.07q2.25-3.18,8.35-4.73c4.89-1.24,8-2.11,9.48-2.62a35.69,35.69,0,0,0,4.6-1.94c0-2-.34-3.47-1-4.27s-1.82-1.22-3.48-1.22a7.6,7.6,0,0,0-4.79,1.29A7.47,7.47,0,0,0,336.55,138.7Zm11.26,8.68a50.51,50.51,0,0,1-5.59,2.15c-2.63.89-4.31,1.77-5,2.63a5.09,5.09,0,0,0,0,6.23,4,4,0,0,0,3.16,1.25,6.78,6.78,0,0,0,4-1.35A7.35,7.35,0,0,0,347,155a13.75,13.75,0,0,0,.78-5Z" transform="translate(-35.06 -108.35)"/><path class="cls-1" d="M365.82,124.73H378v7.07c1.17-3.06,2.37-5.17,3.62-6.31a6.56,6.56,0,0,1,4.62-1.73,11.62,11.62,0,0,1,6.27,2.28l-4,11.76a8.53,8.53,0,0,0-3.65-1.2,4.28,4.28,0,0,0-3.93,2.67c-1.35,2.51-2,7.22-2,14.12v14.45H365.82Z" transform="translate(-35.06 -108.35)"/><path class="cls-1" d="M417.3,124.73h12.16v40.71l0,1.9a22,22,0,0,1-1.36,7.74,16.15,16.15,0,0,1-3.61,5.94,13.14,13.14,0,0,1-5.71,3.29,28.1,28.1,0,0,1-7.93,1c-6.82,0-11.48-1.3-14-3.9S393,175.37,393,171c0-.55,0-1.28,0-2.19l12.63,1.83a5.67,5.67,0,0,0,1.46,3.08A5.24,5.24,0,0,0,410.8,175a4.86,4.86,0,0,0,4.2-1.9c.91-1.28,1.38-3.51,1.38-6.67v-6.53a15.39,15.39,0,0,1-3.83,4.18,11.37,11.37,0,0,1-6.49,2q-6.8,0-11-7.55c-2-3.57-3-8.28-3-14.17,0-6.69,1.27-11.82,3.8-15.33a11.89,11.89,0,0,1,10-5.28,11.5,11.5,0,0,1,6.51,1.72,16.11,16.11,0,0,1,4.81,5.64Zm-12.22,20.9c0,3.11.51,5.42,1.56,6.92a4.8,4.8,0,0,0,8.18-.08c1.1-1.56,1.65-3.9,1.65-7s-.56-5.52-1.73-7.2a5,5,0,0,0-4.2-2.49,4.53,4.53,0,0,0-4,2.29C405.57,139.55,405.08,142.1,405.08,145.63Z" transform="translate(-35.06 -108.35)"/><path class="cls-1" d="M472.33,150.38H446.27a12.38,12.38,0,0,0,1.7,5.93,5.68,5.68,0,0,0,4.92,2.8,6.33,6.33,0,0,0,3.64-1.22,9.54,9.54,0,0,0,2.26-2.71l12.8,1.5c-2,4.32-4.32,7.43-7.09,9.3s-6.73,2.83-11.89,2.83q-6.75,0-10.61-2.42a17.73,17.73,0,0,1-6.39-7.66,27.94,27.94,0,0,1-2.53-12.37q0-10.08,5.07-16.35t14.07-6.25q7.27,0,11.48,2.8a17.56,17.56,0,0,1,6.43,8.13c1.46,3.53,2.2,8.15,2.2,13.83Zm-13.22-7.91c-.27-3.19-.94-5.47-2-6.86a5.26,5.26,0,0,0-4.33-2.08,5.59,5.59,0,0,0-4.95,3.14,13.75,13.75,0,0,0-1.5,5.8Z" transform="translate(-35.06 -108.35)"/><path class="cls-1" d="M491.36,108.35v16.38h7.15v12.1h-7.15v15.26a10,10,0,0,0,.41,3.64,2.27,2.27,0,0,0,2.24,1.4,11.42,11.42,0,0,0,4-1.07l1,11.41a33.81,33.81,0,0,1-9,1.34c-3.23,0-5.62-.53-7.15-1.58a9.23,9.23,0,0,1-3.4-4.81c-.74-2.14-1.1-5.62-1.1-10.44V136.83h-4.79v-12.1h4.79v-7.89Z" transform="translate(-35.06 -108.35)"/></svg>